<svg width="18" height="17" viewBox="0 0 18 17" fill="none" xmlns="http://www.w3.org/2000/svg">
<path d="M16.0508 1.77166C14.1876 -0.0513917 11.209 -0.0509951 9.34625 1.77256L1.53378 9.58507C0.121125 11.031 0.148122 13.3484 1.59408 14.761C3.01624 16.1504 5.28754 16.1504 6.70971 14.761L13.784 7.68669C14.7037 6.76701 14.7037 5.27589 13.784 4.35622C12.8644 3.43655 11.3732 3.43655 10.4536 4.35622L3.68681 11.1229C3.4508 11.3673 3.45757 11.7567 3.70195 11.9928C3.94035 12.223 4.31828 12.223 4.55667 11.9928L11.3234 5.22604C11.7721 4.79618 12.4843 4.8115 12.9142 5.26021C13.331 5.69538 13.331 6.3817 12.9142 6.81686L5.83989 13.8911C4.88421 14.8332 3.34573 14.8222 2.40363 13.8665C1.47106 12.9205 1.47106 11.4009 2.40363 10.4549L10.2161 2.64238C11.6077 1.25028 13.8643 1.24988 15.2564 2.64145C16.6485 4.03301 16.6489 6.28964 15.2573 7.68175L7.44484 15.4943C7.18679 15.7152 7.15673 16.1036 7.37772 16.3616C7.59871 16.6197 7.98705 16.6497 8.24509 16.4287C8.26917 16.4081 8.29159 16.3857 8.31221 16.3616L16.1247 8.54912C17.9758 6.65719 17.9428 3.62279 16.0508 1.77166Z" fill="#C2C2C2"/>
</svg>
