<svg width="21" height="21" viewBox="0 0 21 21" fill="none" xmlns="http://www.w3.org/2000/svg">
<g clip-path="url(#clip0_18_335)">
<path d="M20.2915 12.6945C20.2915 10.9058 19.0395 9.34516 17.1755 8.50049C17.2855 8.89049 17.3489 9.29316 17.3602 9.70649C17.5462 9.81716 17.7262 9.93649 17.8942 10.0665C18.8342 10.7918 19.3529 11.7245 19.3529 12.6945C19.3529 13.6638 18.8362 14.5972 17.8942 15.3212C16.8629 16.1165 15.4762 16.5552 13.9902 16.5552C12.9882 16.5552 12.0315 16.3552 11.1982 15.9825C10.6809 16.0845 10.1429 16.1492 9.58887 16.1718C10.7255 17.0258 12.2775 17.5532 13.9902 17.5532C15.0895 17.5532 16.1229 17.3372 17.0222 16.9552L19.3162 18.1258L18.8529 15.7852C19.7509 14.9452 20.2915 13.8685 20.2915 12.6945Z" fill="#6E6E6E"/>
<path d="M16.7075 9.05262C16.6948 8.63995 16.6328 8.23662 16.5235 7.84728C15.7228 4.99795 12.4348 2.86328 8.50084 2.86328C3.96684 2.86395 0.291504 5.69861 0.291504 9.19528C0.291504 10.7253 0.994837 12.1273 2.16617 13.2226L1.56217 16.2706L4.55084 14.7459C5.72284 15.2433 7.06884 15.5273 8.50084 15.5273C8.64684 15.5273 8.79217 15.5233 8.93617 15.5179C9.48884 15.4959 10.0275 15.4306 10.5462 15.3279C14.0902 14.6273 16.7102 12.1473 16.7102 9.19528C16.7095 9.14795 16.7088 9.10062 16.7075 9.05262ZM13.5882 12.6193C12.3435 13.5779 10.7015 14.1393 8.92617 14.2166C8.7855 14.2239 8.6435 14.2273 8.50017 14.2273C8.2255 14.2273 7.95417 14.2153 7.6855 14.1919C6.06017 14.0559 4.56617 13.5099 3.4135 12.6206C2.18884 11.6759 1.51417 10.4599 1.51417 9.19661C1.51417 7.93328 2.18884 6.71728 3.4135 5.77261C4.75684 4.73661 6.5635 4.16595 8.50017 4.16595C10.4375 4.16595 12.2448 4.73661 13.5868 5.77261C14.1948 6.24128 14.6662 6.77661 14.9888 7.35128C15.1928 7.71595 15.3362 8.09661 15.4155 8.48595C15.4628 8.71995 15.4868 8.95728 15.4868 9.19595C15.4868 10.4586 14.8128 11.6746 13.5882 12.6193Z" fill="#6E6E6E"/>
<path d="M11.4129 10.1124C11.9088 10.1124 12.3109 9.71036 12.3109 9.21441C12.3109 8.71845 11.9088 8.31641 11.4129 8.31641C10.9169 8.31641 10.5149 8.71845 10.5149 9.21441C10.5149 9.71036 10.9169 10.1124 11.4129 10.1124Z" fill="#6E6E6E"/>
<path d="M8.50078 10.1124C8.99673 10.1124 9.39878 9.71036 9.39878 9.21441C9.39878 8.71845 8.99673 8.31641 8.50078 8.31641C8.00483 8.31641 7.60278 8.71845 7.60278 9.21441C7.60278 9.71036 8.00483 10.1124 8.50078 10.1124Z" fill="#6E6E6E"/>
<path d="M5.58885 10.1133C6.08517 10.1133 6.48752 9.7109 6.48752 9.21458C6.48752 8.71826 6.08517 8.31592 5.58885 8.31592C5.09253 8.31592 4.69019 8.71826 4.69019 9.21458C4.69019 9.7109 5.09253 10.1133 5.58885 10.1133Z" fill="#6E6E6E"/>
</g>
<defs>
<clipPath id="clip0_18_335">
<rect width="20" height="20" fill="white" transform="translate(0.291504 0.494629)"/>
</clipPath>
</defs>
</svg>
