<svg width="14" height="14" viewBox="0 0 14 14" fill="none" xmlns="http://www.w3.org/2000/svg">
<path d="M7.78703 7.22861L13.4201 1.54001C13.6184 1.33973 13.6184 1.01501 13.4201 0.81476C13.2218 0.614507 12.9002 0.614481 12.7019 0.81476L7.06883 6.50336L1.43576 0.81476C1.23744 0.614481 0.915892 0.614481 0.717592 0.81476C0.519292 1.01504 0.519266 1.33975 0.717592 1.54001L6.35066 7.22858L0.717592 12.9172C0.519266 13.1175 0.519266 13.4422 0.717592 13.6424C0.816742 13.7426 0.946716 13.7926 1.07669 13.7926C1.20666 13.7926 1.33661 13.7426 1.43579 13.6424L7.06883 7.95385L12.7019 13.6424C12.8011 13.7426 12.931 13.7926 13.061 13.7926C13.191 13.7926 13.3209 13.7426 13.4201 13.6424C13.6184 13.4421 13.6184 13.1174 13.4201 12.9172L7.78703 7.22861Z" fill="#6E6E6E"/>
</svg>
