<svg width="16" height="16" viewBox="0 0 16 16" fill="none" xmlns="http://www.w3.org/2000/svg">
<g clip-path="url(#clip0_23_2)">
<path d="M9.11887 7.51559L14.9596 1.67471C15.3397 1.29478 15.3397 0.680494 14.9596 0.300569C14.5797 -0.0793563 13.9654 -0.0793563 13.5854 0.300569L7.74455 6.14145L1.90384 0.300569C1.52374 -0.0793563 0.909632 -0.0793563 0.529706 0.300569C0.149603 0.680494 0.149603 1.29478 0.529706 1.67471L6.37042 7.51559L0.529706 13.3565C0.149603 13.7364 0.149603 14.3507 0.529706 14.7306C0.719046 14.9201 0.968 15.0153 1.21678 15.0153C1.46555 15.0153 1.71433 14.9201 1.90384 14.7306L7.74455 8.88972L13.5854 14.7306C13.775 14.9201 14.0237 15.0153 14.2725 15.0153C14.5213 15.0153 14.7701 14.9201 14.9596 14.7306C15.3397 14.3507 15.3397 13.7364 14.9596 13.3565L9.11887 7.51559Z" fill="#999999"/>
</g>
<defs>
<clipPath id="clip0_23_2">
<rect width="15" height="15" fill="white" transform="translate(0.244629 0.00292969)"/>
</clipPath>
</defs>
</svg>
