<svg width="27" height="27" viewBox="0 0 27 27" fill="none" xmlns="http://www.w3.org/2000/svg">
<g clip-path="url(#clip0_88_638)">
<path d="M13.6631 21.9375C17.5691 21.9375 16.1764 19.4648 16.4779 18.7537C16.4734 18.2227 16.4689 17.712 16.4869 17.4015C16.7344 17.4713 17.3182 17.7671 18.5243 18.9394C20.3861 20.8181 20.862 21.9375 22.3661 21.9375H25.1347C26.0122 21.9375 26.469 21.5741 26.6974 21.2693C26.9179 20.9745 27.1339 20.457 26.8976 19.6515C26.28 17.712 22.6777 14.3629 22.4539 14.0096C22.4876 13.9444 22.5416 13.8577 22.5697 13.8127H22.5675C23.2785 12.8734 25.992 8.80762 26.3914 7.18087C26.3925 7.17862 26.3936 7.17525 26.3936 7.17188C26.6096 6.42937 26.4116 5.94788 26.2069 5.67563C25.8986 5.26838 25.4081 5.0625 24.7455 5.0625H21.9769C21.0499 5.0625 20.3468 5.52937 19.9913 6.381C19.3961 7.89412 17.7244 11.0059 16.4711 12.1073C16.4329 10.5469 16.4587 9.3555 16.479 8.47012C16.5195 6.74325 16.65 5.0625 14.8579 5.0625H10.5064C9.38363 5.0625 8.30925 6.28875 9.4725 7.7445C10.4895 9.02025 9.83812 9.73125 10.0575 13.2705C9.2025 12.3536 7.6815 9.8775 6.606 6.71288C6.3045 5.85675 5.84775 5.06362 4.56187 5.06362H1.79325C0.6705 5.06362 0 5.67562 0 6.7005C0 9.00225 5.09513 21.9375 13.6631 21.9375ZM4.56187 6.75112C4.806 6.75112 4.83075 6.75113 5.01188 7.26525C6.11325 10.5086 8.58375 15.3079 10.3883 15.3079C11.7439 15.3079 11.7439 13.9185 11.7439 13.3954L11.7428 9.23063C11.6685 7.8525 11.1668 7.16625 10.8371 6.75L14.7836 6.7545C14.7859 6.77363 14.7611 11.3614 14.7949 12.4729C14.7949 14.0512 16.0481 14.9558 18.0045 12.9758C20.0689 10.6459 21.4965 7.16288 21.5539 7.02113C21.6383 6.81863 21.7114 6.75 21.9769 6.75H24.7455H24.7568C24.7556 6.75338 24.7556 6.75675 24.7545 6.76012C24.5014 7.94137 22.0028 11.7056 21.1669 12.8745C21.1534 12.8925 21.141 12.9116 21.1286 12.9308C20.7607 13.5315 20.4615 14.1952 21.1793 15.129H21.1804C21.2456 15.2078 21.4155 15.3923 21.663 15.6488C22.4325 16.443 25.0717 19.1587 25.3057 20.2387C25.1505 20.2635 24.9818 20.2455 22.3661 20.2511C21.8092 20.2511 21.3739 19.4186 19.7122 17.7424C18.2183 16.2889 17.2485 15.6949 16.3654 15.6949C14.6509 15.6949 14.7758 17.0865 14.7915 18.7695C14.7971 20.5942 14.7859 20.0171 14.7983 20.1319C14.6981 20.1713 14.4113 20.25 13.6631 20.25C6.525 20.25 1.8765 8.92013 1.69762 6.7545C1.7595 6.74888 2.61112 6.75225 4.56187 6.75112Z" fill="#6E6E6E"/>
</g>
<defs>
<clipPath id="clip0_88_638">
<rect width="27" height="27" fill="white"/>
</clipPath>
</defs>
</svg>
