<svg width="50" height="51" viewBox="0 0 50 51" fill="none" xmlns="http://www.w3.org/2000/svg">
<g clip-path="url(#clip0_18_612)">
<path d="M43.6489 21.5196L42.5876 19.1842C42.5277 19.0526 42.5277 18.9016 42.5876 18.77L43.6489 16.4342C43.9979 15.6656 43.8182 14.7619 43.2014 14.1851L41.3273 12.4338C41.2216 12.335 41.164 12.1953 41.1689 12.0508L41.2552 9.48691C41.2838 8.6431 40.7718 7.87673 39.9814 7.58033L37.5797 6.67892C37.4443 6.62818 37.3375 6.52137 37.2867 6.38595L36.3857 3.98422C36.0889 3.19382 35.3199 2.68112 34.4787 2.7105L31.9153 2.79709C31.7688 2.80129 31.6311 2.74407 31.5323 2.6384L29.7806 0.764243C29.2042 0.147408 28.3001 -0.032264 27.5314 0.317162L25.1961 1.37803C25.0645 1.43792 24.9134 1.43754 24.7818 1.37803L22.4461 0.317162C21.6774 -0.032264 20.7737 0.147408 20.1969 0.764243L18.4456 2.6384C18.3468 2.74407 18.2079 2.80205 18.0626 2.79709L15.4988 2.7105C14.6546 2.68265 13.889 3.1942 13.5922 3.9846L12.6908 6.38633C12.64 6.52175 12.5332 6.62857 12.3978 6.6793L9.99606 7.58033C9.20566 7.87711 8.69373 8.6431 8.72234 9.48691L8.80893 12.0508C8.81351 12.1953 8.75591 12.335 8.65024 12.4338L6.77647 14.1851C6.15963 14.7619 5.97958 15.6656 6.329 16.4342L7.38987 18.7696C7.44976 18.9012 7.44976 19.0522 7.38987 19.1842L6.329 21.5196C5.97958 22.2882 6.15925 23.1919 6.77608 23.7687L8.65024 25.5204C8.75591 25.6192 8.81351 25.7585 8.80893 25.903L8.72234 28.4669C8.69373 29.3107 9.20566 30.0771 9.99606 30.3735L12.3978 31.2745C12.5332 31.3256 12.64 31.4324 12.6908 31.5675L13.5922 33.9692C13.6215 34.0478 13.6555 34.1237 13.694 34.1962L7.6691 43.4827C7.3769 43.9328 7.37461 44.4932 7.663 44.9456C7.95101 45.398 8.45951 45.633 8.99089 45.5586L13.8954 44.8731C13.9611 44.864 14.0263 44.8945 14.061 44.9509L16.8675 49.498C17.1124 49.8948 17.5369 50.1351 18.0031 50.1401C18.0084 50.1401 18.0134 50.1404 18.0187 50.1404C18.4788 50.1404 18.9022 49.9108 19.1528 49.524L27.0168 37.4028L27.5314 37.6367C28.3001 37.9857 29.2038 37.806 29.7806 37.1892L31.5323 35.3154C31.6311 35.2097 31.7715 35.1518 31.9149 35.1567L34.4787 35.2433C35.3229 35.2719 36.0885 34.76 36.3853 33.9692L37.2864 31.5675C37.3371 31.4321 37.4443 31.3252 37.5793 31.2745L39.9811 30.3735C40.7718 30.0767 41.2838 29.3103 41.2552 28.4669L41.1686 25.903C41.1636 25.7585 41.2216 25.6189 41.3273 25.5201L43.201 23.7683C43.8182 23.1919 43.9979 22.2882 43.6489 21.5196ZM18.0206 48.5779L15.3076 44.1819C14.9677 43.6311 14.3345 43.3331 13.6929 43.4224L9.03171 44.0739L14.8232 35.1476C15.0368 35.2174 15.2649 35.2509 15.4988 35.2433L18.0626 35.1567C18.2079 35.1518 18.3468 35.2097 18.4456 35.3154L20.1973 37.1892C20.5776 37.5962 21.1006 37.8129 21.6332 37.8129C21.9074 37.8129 22.1848 37.7553 22.4461 37.6367L24.7818 36.5758C24.9134 36.5159 25.0645 36.5159 25.1961 36.5758L25.6683 36.7902L18.0206 48.5779ZM42.2012 22.6983L40.327 24.45C39.9124 24.8376 39.6858 25.3854 39.7049 25.9526L39.7915 28.5161C39.7987 28.7313 39.6682 28.9266 39.4668 29.0021L37.0651 29.9031C36.5337 30.1026 36.1145 30.5215 35.9154 31.0529L35.0139 33.4546C34.9384 33.656 34.7416 33.7865 34.5283 33.7792L31.9645 33.6926C31.3976 33.674 30.8494 33.9005 30.4623 34.3152L28.7106 36.189C28.5637 36.3461 28.3333 36.3923 28.1372 36.303L25.8019 35.2422C25.2853 35.0072 24.6925 35.0072 24.1756 35.2422L21.8403 36.303C21.6442 36.3919 21.4142 36.3461 21.2673 36.189L19.5156 34.3152C19.1433 33.9166 18.623 33.6919 18.0798 33.6919C18.0576 33.6919 18.0355 33.6923 18.013 33.693L15.4495 33.7796C15.2344 33.7869 15.0391 33.6564 14.9636 33.455L14.0625 31.0533C13.863 30.5219 13.4438 30.1026 12.9128 29.9035L10.511 29.0021C10.3096 28.9266 10.1792 28.7313 10.1864 28.5165L10.2726 25.9526C10.2921 25.3854 10.0651 24.8376 9.65045 24.4504L7.77668 22.6983C7.61951 22.5515 7.57335 22.3214 7.66262 22.1254L8.72348 19.79C8.95847 19.2735 8.95847 18.6807 8.72348 18.1638L7.66262 15.8285C7.57374 15.6328 7.61951 15.4024 7.77668 15.2555L9.65045 13.5038C10.0651 13.1162 10.2921 12.5684 10.273 12.0012L10.1864 9.43732C10.1792 9.22255 10.3096 9.02724 10.511 8.95171L12.9128 8.05068C13.4442 7.85117 13.863 7.43232 14.0625 6.90093L14.9636 4.49921C15.0391 4.29779 15.2336 4.16771 15.4495 4.17458L18.0134 4.26079C18.5814 4.28101 19.1281 4.05327 19.5156 3.63861L21.2673 1.76484C21.4142 1.60729 21.6446 1.56189 21.8403 1.65078L24.1756 2.71164C24.6925 2.94625 25.285 2.94625 25.8019 2.71164L28.1372 1.65078C28.3333 1.56189 28.5637 1.60767 28.7106 1.76484L30.4623 3.63861C30.8494 4.05327 31.3988 4.28139 31.9645 4.26117L34.5283 4.17458C34.7404 4.16771 34.9384 4.29779 35.0139 4.49921L35.9154 6.90093C36.1145 7.43232 36.5337 7.85117 37.0651 8.05068L39.4668 8.95171C39.6682 9.02762 39.7987 9.22255 39.7915 9.4377L39.7049 12.0016C39.6858 12.5688 39.9124 13.1162 40.327 13.5038L42.2012 15.2555C42.3584 15.4024 42.4041 15.6328 42.3153 15.8285L41.254 18.1638C41.0194 18.6807 41.0194 19.2735 41.254 19.79L42.3149 22.1254C42.4041 22.3214 42.3584 22.5515 42.2012 22.6983Z" fill="#404040"/>
<path d="M37.6397 19.7238C37.238 19.6781 36.8744 19.9653 36.8275 20.367C36.1306 26.3694 31.0414 30.8956 24.989 30.8956C18.9331 30.8956 13.8436 26.3664 13.1497 20.3605C13.1031 19.9588 12.74 19.6697 12.3379 19.717C11.9362 19.7635 11.6478 20.1267 11.6944 20.5288C12.4737 27.2739 18.1893 32.3604 24.989 32.3604C31.7849 32.3604 37.5 27.277 38.2828 20.5356C38.3294 20.1339 38.0413 19.7704 37.6397 19.7238Z" fill="#404040"/>
<path d="M24.9889 5.59375C18.1869 5.59375 12.471 10.6822 11.6936 17.43C11.6474 17.8317 11.9358 18.1948 12.3375 18.2414C12.3661 18.2448 12.3943 18.2463 12.4222 18.2463C12.7892 18.2463 13.1058 17.9709 13.1489 17.5975C13.8412 11.5893 18.9312 7.05859 24.9889 7.05859C31.0451 7.05859 36.1351 11.5882 36.8282 17.5948C36.8748 17.9965 37.2375 18.2849 37.64 18.2383C38.0421 18.1922 38.3301 17.8286 38.2835 17.4269C37.505 10.681 31.7894 5.59375 24.9889 5.59375Z" fill="#404040"/>
<path d="M37.5901 36.2099C37.37 35.8704 36.916 35.7739 36.5769 35.994C36.2374 36.2141 36.1409 36.6677 36.361 37.0072L40.9459 44.0739L36.2851 43.4228C35.6438 43.3331 35.0098 43.6311 34.6703 44.1819L31.9569 48.5779L27.2076 41.2579C26.9875 40.9184 26.5339 40.8219 26.1948 41.042C25.8553 41.2621 25.7588 41.7157 25.9789 42.0552L30.8247 49.524C31.0757 49.9108 31.4988 50.1404 31.9588 50.1404H31.9745C32.4406 50.1351 32.8652 49.8952 33.1105 49.4984L35.9166 44.9509C35.9517 44.8945 36.0169 44.864 36.0821 44.8731L40.9867 45.5586C41.5177 45.6334 42.0266 45.398 42.315 44.9456C42.603 44.4932 42.6007 43.9328 42.3089 43.483L37.5901 36.2099Z" fill="#404040"/>
</g>
<defs>
<clipPath id="clip0_18_612">
<rect width="50" height="50" fill="white" transform="translate(0 0.140625)"/>
</clipPath>
</defs>
</svg>
