<svg width="46" height="51" viewBox="0 0 46 51" fill="none" xmlns="http://www.w3.org/2000/svg">
<path d="M22.3254 47.5322L21.1396 48.7179C20.613 49.2445 20.9934 50.1405 21.7289 50.1405C21.9421 50.1405 22.1555 50.0592 22.3182 49.8965L24.9224 47.2923C25.2479 46.9669 25.2479 46.4393 24.9224 46.1139L22.3182 43.5097C21.9928 43.1843 21.4652 43.1843 21.1398 43.5097C20.8142 43.8351 20.8142 44.3627 21.1398 44.6881L22.3169 45.8653C11.0475 45.6777 1.93725 36.4538 1.93725 25.1405C1.93725 20.4656 3.456 16.053 6.32923 12.3799C6.61277 12.0174 6.54881 11.4936 6.18621 11.2101C5.82381 10.9267 5.30006 10.9905 5.01641 11.3531C1.91173 15.3222 0.27058 20.0898 0.27058 25.1405C0.27058 37.4054 10.1034 47.3508 22.3254 47.5322ZM7.74183 10.4111C6.99558 10.4111 6.62194 9.49469 7.16631 8.975C7.54391 8.61354 8.06266 8.66927 8.36235 8.98083C8.89048 9.5299 8.45715 10.4111 7.74183 10.4111ZM27.2498 30.0364H29.7498C30.21 30.0364 30.5831 30.4095 30.5831 30.8697C30.5831 31.3299 30.21 31.703 29.7498 31.703H27.2498C26.7895 31.703 26.4164 31.3299 26.4164 30.8697C26.4164 30.4095 26.7895 30.0364 27.2498 30.0364ZM13.3956 36.078C13.3956 35.6178 13.7687 35.2447 14.2289 35.2447H31.1039C32.0229 35.2447 32.7706 34.497 32.7706 33.578V16.703C32.7706 15.7841 32.0229 15.0364 31.1039 15.0364H26.8331V20.8697C26.8331 21.4976 26.1631 21.9 25.6088 21.6056L22.6664 20.0424L19.724 21.6055C19.1694 21.9002 18.4998 21.4971 18.4998 20.8697V17.953C18.4998 17.4928 18.8729 17.1197 19.3331 17.1197C19.7933 17.1197 20.1664 17.4928 20.1664 17.953V19.4833L22.2755 18.3629C22.5201 18.233 22.8129 18.233 23.0575 18.3629L25.1664 19.4833V15.0364H14.2289C13.31 15.0364 12.5622 15.7841 12.5622 16.703V31.4947C12.5622 31.9549 12.1891 32.328 11.7289 32.328C11.2687 32.328 10.8956 31.9549 10.8956 31.4947V16.703C10.8956 14.865 12.3909 13.3697 14.2289 13.3697H31.1039C32.9419 13.3697 34.4373 14.865 34.4373 16.703V33.578C34.4373 35.416 32.9419 36.9114 31.1039 36.9114H14.2289C13.7687 36.9114 13.3956 36.5382 13.3956 36.078ZM43.3956 25.1405C43.3956 13.8273 34.2854 4.60323 23.016 4.41583L24.1932 5.59302C24.7199 6.11948 24.3395 7.01552 23.6039 7.01552C23.3907 7.01552 23.1774 6.93417 23.0146 6.77146L20.4105 4.16729C20.085 3.84188 20.085 3.31427 20.4105 2.98885L23.0146 0.384687C23.3401 0.0592708 23.8677 0.0592708 24.1931 0.384687C24.5186 0.710104 24.5186 1.23771 24.1931 1.56313L23.0074 2.74885C35.2213 2.93 45.0623 12.8676 45.0623 25.1405C45.0623 30.1911 43.4212 34.9589 40.3164 38.928C40.0327 39.2908 39.5088 39.3544 39.1466 39.071C38.7841 38.7875 38.7201 38.2638 39.0036 37.9012C41.8769 34.228 43.3956 29.8154 43.3956 25.1405ZM38.1939 40.1278C38.4931 40.4412 38.5253 40.9627 38.1487 41.323C37.8172 41.642 37.2897 41.632 36.9704 41.3001C36.6513 40.9683 36.6616 40.4408 36.9933 40.1218C37.3767 39.755 37.8964 39.816 38.1939 40.1278Z" fill="#404040"/>
</svg>
