<svg width="46" height="46" viewBox="0 0 46 46" fill="none" xmlns="http://www.w3.org/2000/svg">
<g clip-path="url(#clip0_18_587)">
<path d="M39.2498 36.3271C37.9667 36.3271 36.9229 37.3709 36.9229 38.6541C36.9229 39.9371 37.9666 40.9809 39.2498 40.9809C40.5328 40.9809 41.5766 39.9371 41.5766 38.6541C41.5766 37.371 40.5328 36.3271 39.2498 36.3271ZM39.2497 39.6019C38.7271 39.6019 38.3019 39.1767 38.3019 38.6541C38.3019 38.1315 38.7271 37.7062 39.2497 37.7062C39.7723 37.7062 40.1975 38.1315 40.1975 38.6541C40.1975 39.1767 39.7723 39.6019 39.2497 39.6019Z" fill="#404040"/>
<path d="M45.519 38.533C45.475 36.8294 44.754 35.2625 43.4885 34.1211L29.606 21.5997L41.8807 9.3251C41.9613 9.30101 42.0411 9.27104 42.118 9.23044L44.776 7.82753C45.1432 7.63364 45.3895 7.28683 45.4515 6.87629C45.5135 6.46566 45.3807 6.06172 45.0871 5.76781L42.0942 2.77505C41.8005 2.48141 41.3968 2.3486 40.9859 2.41065C40.5753 2.47262 40.2286 2.71889 40.0346 3.08618L38.6316 5.74408C38.5907 5.82169 38.5592 5.90193 38.535 5.98341L32.7413 11.7772C32.472 12.0465 32.472 12.483 32.7413 12.7524C33.0107 13.0215 33.4471 13.0215 33.7165 12.7524L39.0332 7.43562L40.4265 8.82895L26.8298 22.4256L25.4365 21.0323L31.3713 15.0976C31.6406 14.8282 31.6406 14.3917 31.3713 14.1223C31.1019 13.8532 30.6655 13.8532 30.3961 14.1223L26.09 18.4285L21.4035 14.2014C22.7322 10.3768 21.77 6.12157 18.8876 3.23929C15.9353 0.286954 11.5063 -0.653915 7.60411 0.842598C7.38605 0.92627 7.22513 1.11453 7.17661 1.34296C7.12809 1.57139 7.19832 1.80887 7.36346 1.97401L12.7768 7.38746C12.937 7.5476 13.0253 7.76056 13.0253 7.98705C13.0253 8.21354 12.937 8.4265 12.7768 8.58673L9.26129 12.1023C9.10115 12.2625 8.88819 12.3507 8.6617 12.3507C8.4352 12.3507 8.22224 12.2626 8.06202 12.1023L2.64857 6.68882C2.48334 6.52367 2.24603 6.45345 2.01752 6.50196C1.78909 6.55057 1.60083 6.71141 1.51716 6.92946C0.0206424 10.8315 0.961512 15.2604 3.91393 18.2129C6.72564 21.0246 10.8984 22.0145 14.6629 20.7982L18.2863 24.7605C18.1122 25.1008 17.8858 25.418 17.6066 25.6973C16.5621 26.7418 14.9967 27.0708 13.6181 26.5357C13.3633 26.4366 13.0742 26.4976 12.8809 26.6909L4.4382 35.1336C2.15269 37.4192 2.15269 41.138 4.4382 43.4234C5.54554 44.5309 7.01761 45.1406 8.58339 45.1406C10.1491 45.1406 11.6212 44.5309 12.7284 43.4238L21.1711 34.9812C21.3643 34.7879 21.4252 34.4987 21.3262 34.2439C20.791 32.8655 21.1201 31.2999 22.1645 30.2554C23.2092 29.2109 24.7747 28.8818 26.1532 29.4169C26.4081 29.516 26.697 29.4549 26.8904 29.2618L28.483 27.6692C28.9625 27.1897 29.2265 26.552 29.2265 25.8739C29.2265 25.1959 28.9625 24.5582 28.483 24.0787L27.8051 23.4008L28.6297 22.5761L42.565 35.1451C43.5469 36.0308 44.1065 37.2466 44.1405 38.5685C44.1745 39.8904 43.6783 41.1334 42.7432 42.0684C41.8126 42.9992 40.5728 43.4945 39.2596 43.4661C37.9438 43.4368 36.73 42.8857 35.8419 41.9144L25.4805 30.584C25.2233 30.3028 24.7873 30.2835 24.5064 30.5405C24.2254 30.7976 24.2059 31.2337 24.4628 31.5147L34.8241 42.8451C35.9688 44.0967 37.5331 44.8069 39.2287 44.8448C39.2762 44.8458 39.3236 44.8464 39.3709 44.8464C41.0134 44.8464 42.5525 44.2092 43.7184 43.0435C44.9233 41.8385 45.5628 40.2366 45.519 38.533ZM39.8804 6.33251L41.2005 3.83167L44.0305 6.66166L41.5296 7.98169L39.8804 6.33251ZM15.3743 19.5327C15.1845 19.3253 14.888 19.2537 14.6245 19.352C11.2527 20.6097 7.43105 19.7799 4.88899 17.2381C2.58081 14.9298 1.68643 11.5834 2.47455 8.46526L7.08678 13.0775C7.50752 13.4981 8.06677 13.7297 8.66161 13.7297C9.25645 13.7297 9.8157 13.4981 10.2363 13.0775L13.7519 9.56196C14.1725 9.14123 14.4041 8.58198 14.4041 7.98714C14.4041 7.39229 14.1725 6.83305 13.7519 6.4124L9.13973 1.79999C12.2577 1.01152 15.6044 1.90616 17.9124 4.21443C20.5192 6.82101 21.3202 10.7186 19.9534 14.1441C19.8465 14.4121 19.9177 14.7184 20.132 14.9117L25.1136 19.4048L24.4613 20.0572L23.7834 19.3793C23.3038 18.8997 22.6662 18.6357 21.9881 18.6357C21.31 18.6357 20.6724 18.8997 20.1929 19.3793L18.6003 20.9718C18.4071 21.1651 18.3462 21.4543 18.4452 21.7091C18.6286 22.1815 18.7081 22.6756 18.6945 23.1635L15.3743 19.5327ZM27.5076 26.694L26.2172 27.9845C24.4425 27.4729 22.5114 27.9583 21.1895 29.2801H21.1894C19.8675 30.6021 19.3821 32.533 19.8939 34.308L11.7533 42.4484C10.9065 43.2952 9.78081 43.7615 8.58347 43.7615C7.38614 43.7615 6.26026 43.2952 5.4137 42.4484C3.66582 40.7006 3.66582 37.8567 5.4137 36.1088L13.5542 27.9683C15.3291 28.4802 17.2599 27.9945 18.582 26.6726C19.9039 25.3506 20.3894 23.4198 19.8776 21.6448L21.1681 20.3544C21.6202 19.9021 22.3561 19.9021 22.8082 20.3544L23.9737 21.5199L26.3421 23.8883L27.5076 25.0538C27.9599 25.5061 27.9599 26.2419 27.5076 26.694Z" fill="#404040"/>
<path d="M14.9351 30.573C14.6658 30.3038 14.2293 30.3038 13.9599 30.573L7.42805 37.1049C7.15875 37.3742 7.15875 37.8107 7.42805 38.0801C7.5627 38.2147 7.73927 38.282 7.91566 38.282C8.09206 38.282 8.26863 38.2147 8.40328 38.0801L14.9351 31.5482C15.2043 31.2789 15.2043 30.8423 14.9351 30.573Z" fill="#404040"/>
<path d="M17.3485 32.9861C17.0792 32.7169 16.6426 32.7169 16.3732 32.9861L9.84138 39.5179C9.57208 39.7872 9.57208 40.2237 9.84138 40.4931C9.97603 40.6276 10.1525 40.695 10.329 40.695C10.5054 40.695 10.682 40.6276 10.8166 40.4931L17.3485 33.9613C17.6178 33.6919 17.6178 33.2555 17.3485 32.9861Z" fill="#404040"/>
</g>
<defs>
<clipPath id="clip0_18_587">
<rect width="45" height="45" fill="white" transform="translate(0.668213 0.140625)"/>
</clipPath>
</defs>
</svg>
