<svg width="49" height="50" viewBox="0 0 49 50" fill="none" xmlns="http://www.w3.org/2000/svg">
<g clip-path="url(#clip0_18_571)">
<path d="M24.5 0.151367C10.9692 0.151367 0 11.1205 0 24.6514C0 38.1822 10.9692 49.1514 24.5 49.1514C38.0308 49.1514 49 38.1822 49 24.6514C48.9848 11.1269 38.0244 0.16652 24.5 0.151367ZM24.5 47.518C11.8712 47.518 1.63333 37.2802 1.63333 24.6514C1.63333 12.0225 11.8712 1.7847 24.5 1.7847C37.1288 1.7847 47.3667 12.0225 47.3667 24.6514C47.3523 37.2742 37.1228 47.5037 24.5 47.518Z" fill="#404040"/>
<path d="M13.1416 23.0995C13.197 23.1107 13.2536 23.1167 13.3099 23.1167C13.6959 23.1159 14.0288 22.8451 14.1078 22.4675C14.2103 21.9834 14.3466 21.5077 14.5161 21.0431C14.6194 20.768 14.5668 20.4585 14.3785 20.2328C14.1903 20.0071 13.8952 19.9003 13.6061 19.9525C13.3166 20.0051 13.0782 20.2089 12.9809 20.486C12.7867 21.0232 12.63 21.5735 12.5127 22.1325C12.4202 22.5732 12.7013 23.0054 13.1416 23.0995Z" fill="#404040"/>
<path d="M15.2324 18.771C15.4947 18.7714 15.7408 18.6462 15.8947 18.4341C16.1854 18.0333 16.5028 17.6533 16.8454 17.2964C17.1576 16.971 17.1472 16.4538 16.8218 16.1416C16.4964 15.8293 15.9792 15.8397 15.667 16.1651C15.2722 16.5746 14.9066 17.0113 14.5728 17.4718C14.3926 17.7203 14.3666 18.0485 14.5058 18.3216C14.645 18.5952 14.9257 18.7674 15.2324 18.7678V18.771Z" fill="#404040"/>
<path d="M18.7571 15.5811C18.9006 15.5807 19.0418 15.5424 19.1654 15.4698C19.5909 15.2206 20.0339 15.0021 20.4909 14.8166C20.9092 14.6468 21.1102 14.1699 20.9403 13.7515C20.77 13.3336 20.2935 13.1327 19.8752 13.3025C19.3476 13.5179 18.8352 13.7699 18.3424 14.0562C18.0233 14.2416 17.8678 14.6177 17.9635 14.9742C18.0588 15.3307 18.3818 15.5787 18.7507 15.5795L18.7571 15.5811Z" fill="#404040"/>
<path d="M36.2707 21.2913C36.2659 21.2698 36.2707 21.2495 36.2647 21.2283C36.2503 21.1761 36.2296 21.1247 36.2144 21.0724C36.1989 21.0202 36.175 20.9556 36.1562 20.8966C36.0573 20.5911 35.9465 20.2893 35.8241 19.9902C35.8017 19.9364 35.7806 19.8817 35.7579 19.8267C35.7284 19.7589 35.7048 19.6895 35.6761 19.6225C35.6618 19.6002 35.6462 19.5787 35.6295 19.5583C35.1733 18.5582 34.5847 17.6243 33.8793 16.7813C33.8697 16.7686 33.8673 16.7522 33.8566 16.7391C33.4885 16.3052 33.0909 15.8973 32.6667 15.5181C32.6403 15.5009 32.6132 15.485 32.5849 15.4706C31.7746 14.7564 30.8734 14.1523 29.9048 13.6742C29.8829 13.6546 29.8598 13.6371 29.8354 13.6211C29.6783 13.545 29.5168 13.4788 29.3557 13.4094C29.3095 13.3891 29.2636 13.3671 29.2162 13.3476C28.8967 13.2144 28.5753 13.0904 28.2476 12.9855C28.2388 12.9855 28.2304 12.9855 28.2216 12.9855C27.1657 12.6529 26.0695 12.4651 24.963 12.428C24.9378 12.428 24.9163 12.4117 24.8912 12.4109C24.8094 12.4109 24.7221 12.4109 24.6388 12.4109C24.5921 12.4109 24.5474 12.4033 24.5008 12.4033C24.4876 12.4033 24.4773 12.4101 24.4641 12.4109C24.037 12.4097 23.6099 12.4304 23.1853 12.4735C22.7554 12.5206 22.4368 12.8946 22.4587 13.3265C22.4803 13.7579 22.8344 14.0981 23.267 14.1021C23.2961 14.1021 23.3252 14.1005 23.3543 14.0973C23.7714 14.055 24.1909 14.0367 24.61 14.0422C25.979 14.0534 27.332 14.3309 28.5949 14.8589L28.6838 14.8984C29.8227 15.3916 30.8666 16.0799 31.7682 16.9325C31.9888 17.1402 32.1977 17.3572 32.3987 17.586C33.1719 18.4426 33.8003 19.4192 34.2593 20.4779C34.2773 20.5185 34.2928 20.5596 34.31 20.6011C34.4188 20.8619 34.5161 21.1279 34.6022 21.399C34.6186 21.4497 34.6365 21.5003 34.6521 21.5509C34.9599 22.5554 35.1167 23.6002 35.1167 24.6509C35.1167 24.9775 35.0963 25.2993 35.0676 25.6179C35.0604 25.6997 35.0513 25.781 35.0425 25.8628C34.7303 28.5803 33.3796 31.0722 31.2734 32.8176L31.2303 32.8543C30.1824 33.7164 28.9789 34.3692 27.6849 34.7775C27.6482 34.7891 27.6099 34.7986 27.5733 34.8094C27.3045 34.8912 27.0309 34.9605 26.7566 35.0212L26.554 35.0642C20.8856 36.1879 15.3627 32.5616 14.1405 26.9139L15.9685 27.8358C16.372 28.0376 16.8625 27.8737 17.0643 27.4702C17.266 27.0662 17.1021 26.5758 16.6982 26.374L13.4315 24.7406C13.3207 24.6864 13.1986 24.6585 13.0746 24.6589C13.0631 24.6553 13.0511 24.6525 13.0387 24.6509C13.0152 24.6561 12.9917 24.6629 12.9686 24.6705C12.884 24.6792 12.8011 24.7016 12.7237 24.7367C12.5566 24.81 12.4195 24.9376 12.3349 25.0991L10.7016 28.3658C10.4998 28.7697 10.6637 29.2602 11.0673 29.462C11.4712 29.6634 11.9617 29.4999 12.1635 29.0959L12.7213 27.9806C12.953 28.8012 13.2716 29.5952 13.672 30.3488C13.6776 30.3716 13.6843 30.3939 13.6923 30.4158C13.9607 30.9191 14.2641 31.4024 14.6003 31.8629C14.6206 31.8909 14.6525 31.902 14.6757 31.9268C15.3105 32.7753 16.0514 33.5393 16.8804 34.1993C16.9083 34.2388 16.9398 34.2755 16.9745 34.309C17.4227 34.6615 17.8953 34.9817 18.3889 35.2676C18.4496 35.3031 18.5146 35.3306 18.5823 35.3493C19.4943 35.8574 20.4677 36.247 21.4782 36.5081C21.5021 36.5213 21.5268 36.5329 21.5519 36.5432C22.1058 36.68 22.6685 36.7781 23.2359 36.8363H23.3173C23.7084 36.8758 24.104 36.8977 24.504 36.8977C25.1695 36.8933 25.8335 36.8343 26.4894 36.7219H26.4994C26.5472 36.7223 26.5951 36.7179 26.6421 36.7091C26.7131 36.6968 26.7825 36.678 26.8535 36.6641C26.9444 36.6469 27.0333 36.6266 27.1231 36.607C27.4325 36.54 27.7375 36.4611 28.0386 36.371C28.0861 36.357 28.1343 36.3454 28.1806 36.3307C28.2272 36.3163 28.2623 36.3088 28.2998 36.2964C28.3185 36.29 28.3309 36.2761 28.3481 36.2689C29.402 35.922 30.4037 35.4327 31.3256 34.815C31.3372 34.8078 31.3495 34.8062 31.3607 34.7986C31.6737 34.5873 31.974 34.3544 32.2683 34.1136C32.287 34.098 32.305 34.0817 32.3245 34.0661C32.4517 33.96 32.5817 33.8572 32.7041 33.7471C32.7261 33.7212 32.746 33.6941 32.764 33.6654C33.5495 32.9472 34.2386 32.1301 34.8144 31.2349C34.8443 31.2034 34.8714 31.1699 34.8961 31.1344C35.198 30.6511 35.466 30.1475 35.698 29.6267C35.7064 29.6087 35.704 29.59 35.7104 29.5721C36.1502 28.5704 36.4525 27.5132 36.6088 26.4306C36.6192 26.4039 36.6284 26.3764 36.6355 26.3489C36.6495 26.25 36.6559 26.1495 36.6674 26.0498C36.679 25.9501 36.6886 25.854 36.6977 25.7559C36.7312 25.3866 36.754 25.0158 36.754 24.6453V24.5979C36.754 24.5931 36.754 24.5879 36.754 24.5823C36.7436 23.4682 36.5813 22.3608 36.2707 21.2913Z" fill="#404040"/>
<path d="M24.5 17.3018C24.049 17.3018 23.6833 17.6674 23.6833 18.1184V24.6518C23.6833 24.8683 23.7695 25.076 23.9226 25.2292L27.1893 28.4958C27.5099 28.8053 28.0191 28.8009 28.3341 28.4859C28.6491 28.1708 28.6535 27.6616 28.3441 27.341L25.3167 24.3136V18.1184C25.3167 17.6674 24.951 17.3018 24.5 17.3018Z" fill="#404040"/>
</g>
<defs>
<clipPath id="clip0_18_571">
<rect width="49" height="49" fill="white" transform="translate(0 0.151367)"/>
</clipPath>
</defs>
</svg>
