<svg width="46" height="46" viewBox="0 0 46 46" fill="none" xmlns="http://www.w3.org/2000/svg">
<path d="M40.1884 14.9054C40.241 14.431 40.1864 13.9509 40.0285 13.5005C39.8706 13.0501 39.6134 12.641 39.276 12.3034C38.9386 11.9659 38.5297 11.7085 38.0794 11.5503C37.6291 11.3921 37.149 11.3372 36.6746 11.3896C36.6872 11.2742 36.6936 11.1582 36.6938 11.0421C36.6938 10.1964 36.3578 9.38521 35.7597 8.78715C35.1617 8.18909 34.3505 7.85311 33.5047 7.8531C33.3887 7.85328 33.2727 7.85968 33.1573 7.87229C33.2295 7.21596 33.096 6.55342 32.7753 5.97622C32.4547 5.39902 31.9627 4.93566 31.3673 4.65014C30.772 4.36463 30.1026 4.27107 29.4518 4.38238C28.801 4.49369 28.2008 4.80438 27.7341 5.27153L25.3292 7.67651C24.971 7.19953 24.5797 6.74832 24.1582 6.32622L21.3457 3.51372C20.2814 2.44946 18.838 1.85156 17.3329 1.85156C15.8278 1.85156 14.3843 2.44946 13.3201 3.51372C13.2548 3.579 13.203 3.65651 13.1676 3.74182C13.1323 3.82712 13.1141 3.91855 13.1141 4.01089C13.1141 4.10323 13.1323 4.19466 13.1676 4.27996C13.203 4.36527 13.2548 4.44278 13.3201 4.50807L14.3392 5.52718C15.6487 6.84005 16.5889 8.47505 17.0648 10.2673C17.5408 12.0595 17.5357 13.9455 17.05 15.7351C16.7711 16.7579 16.6298 17.8133 16.6297 18.8734V23.4071L15.2235 24.8134L15.0175 24.6075C14.8857 24.4756 14.7068 24.4015 14.5204 24.4015C14.3339 24.4015 14.1551 24.4756 14.0232 24.6075L11.7079 26.9228L11.5019 26.7168C11.3701 26.585 11.1912 26.5109 11.0047 26.5109C10.8183 26.5109 10.6394 26.585 10.5076 26.7168L2.07007 35.1543L3.06442 36.1487L11.0047 28.2084L22.6666 39.8703L19.6482 42.8887L20.6425 43.8831L24.1582 40.3674C24.2235 40.3022 24.2753 40.2246 24.3106 40.1393C24.3459 40.054 24.3641 39.9626 24.3641 39.8703C24.3641 39.7779 24.3459 39.6865 24.3106 39.6012C24.2753 39.5159 24.2235 39.4384 24.1582 39.3731L23.2491 38.464L25.5644 36.1487C25.6297 36.0834 25.6815 36.0059 25.7168 35.9206C25.7522 35.8353 25.7704 35.7439 25.7704 35.6515C25.7704 35.5592 25.7522 35.4677 25.7168 35.3824C25.6815 35.2971 25.6297 35.2196 25.5644 35.1543L23.9522 33.5421L25.3585 32.1359H30.6922C30.7846 32.1359 30.876 32.1177 30.9613 32.0824C31.0466 32.047 31.1241 31.9952 31.1894 31.9299L38.2207 24.8987L38.1931 24.8711C38.3277 24.7732 38.4545 24.6648 38.5722 24.5471L42.791 20.3284C43.2582 19.8616 43.569 19.2613 43.6802 18.6103C43.7915 17.9592 43.6977 17.2898 43.412 16.6943C43.1262 16.0989 42.6625 15.607 42.0851 15.2865C41.5076 14.966 40.8448 14.8329 40.1884 14.9054ZM37.0204 12.7758C37.373 12.7756 37.7177 12.8799 38.011 13.0757C38.3043 13.2715 38.5328 13.5499 38.6678 13.8757C38.8028 14.2014 38.8381 14.5599 38.7692 14.9057C38.7004 15.2516 38.5305 15.5692 38.281 15.8184L34.0623 20.0372C33.7279 20.3715 33.2744 20.5593 32.8016 20.5593C32.3288 20.5593 31.8753 20.3715 31.541 20.0372C31.2066 19.7028 31.0188 19.2493 31.0188 18.7765C31.0188 18.3037 31.2066 17.8502 31.541 17.5159L35.7597 13.2971C35.9252 13.1315 36.1217 13.0002 36.338 12.9107C36.5544 12.8212 36.7863 12.7754 37.0204 12.7758ZM34.7654 9.7815C35.0992 10.1161 35.2867 10.5695 35.2867 11.0421C35.2867 11.5148 35.0992 11.9682 34.7654 12.3028L30.5466 16.5215C30.2123 16.8559 29.7588 17.0437 29.286 17.0437C28.8132 17.0437 28.3597 16.8559 28.0254 16.5215C27.691 16.1872 27.5032 15.7337 27.5032 15.2609C27.5032 14.7881 27.691 14.3346 28.0254 14.0003L32.2441 9.7815C32.5787 9.44768 33.0321 9.26021 33.5047 9.26021C33.9774 9.26021 34.4308 9.44768 34.7654 9.7815ZM28.7285 6.26588C29.0628 5.93154 29.5163 5.7437 29.9891 5.7437C30.4619 5.7437 30.9154 5.93154 31.2498 6.26588C31.5841 6.60022 31.7719 7.05369 31.7719 7.52652C31.7719 7.99935 31.5841 8.45281 31.2498 8.78715L27.031 13.0059C26.8655 13.1715 26.6689 13.3028 26.4526 13.3924C26.2363 13.482 26.0045 13.5281 25.7704 13.5281C25.5362 13.5281 25.3044 13.482 25.0881 13.3924C24.8718 13.3028 24.6753 13.1715 24.5097 13.0059C24.3442 12.8404 24.2129 12.6438 24.1233 12.4275C24.0337 12.2112 23.9876 11.9794 23.9876 11.7453C23.9876 11.5111 24.0337 11.2793 24.1233 11.063C24.2129 10.8467 24.3442 10.6502 24.5097 10.4846L28.7285 6.26588ZM22.2547 37.4697L12.7022 27.9171L14.5204 26.099L24.0729 35.6515L22.2547 37.4697ZM30.401 30.7296H25.0672C24.9749 30.7296 24.8835 30.7478 24.7982 30.7832C24.7129 30.8185 24.6354 30.8703 24.5701 30.9356L22.9579 32.5478L16.2178 25.8078L17.83 24.1956C17.8953 24.1303 17.9471 24.0528 17.9825 23.9675C18.0178 23.8822 18.036 23.7907 18.036 23.6984V18.8734C18.036 17.9383 18.1607 17.0073 18.4067 16.1051C18.9573 14.0763 18.9631 11.9382 18.4235 9.90643C17.8839 7.87468 16.8181 6.02116 15.3335 4.53283L14.8525 4.05183C15.6754 3.46623 16.6789 3.19078 17.6854 3.27428C18.6918 3.35779 19.6363 3.79486 20.3513 4.50807L23.1638 7.32057C23.5859 7.74291 23.9739 8.19797 24.3242 8.6815L23.5154 9.49028C23.0477 9.95672 22.7365 10.557 22.6249 11.208C22.5133 11.859 22.6068 12.5287 22.8924 13.1242C23.178 13.7198 23.6417 14.2119 24.2192 14.5325C24.7968 14.853 25.4596 14.9861 26.1161 14.9135C26.1035 15.0288 26.0971 15.1448 26.097 15.2609C26.0958 15.7864 26.2252 16.304 26.4735 16.7671V17.3203C26.4775 18.8048 26.1871 20.2754 25.619 21.647C25.0509 23.0185 24.2164 24.2637 23.1638 25.3106L24.1582 26.3049C26.3548 24.1205 27.6707 21.2039 27.8547 18.1115C28.2987 18.3348 28.789 18.4507 29.286 18.4499C29.4021 18.4498 29.518 18.4433 29.6334 18.4307C29.5808 18.9052 29.6356 19.3853 29.7938 19.8357C29.9519 20.2861 30.2093 20.6951 30.5469 21.0325C30.8845 21.3699 31.2937 21.6271 31.7442 21.785C32.1947 21.9428 32.6749 21.9973 33.1493 21.9445C33.0609 22.7397 33.2752 23.539 33.7496 24.1833C34.2239 24.8277 34.9235 25.2698 35.709 25.4216L30.401 30.7296ZM41.7966 19.334L37.5779 23.5528C37.2435 23.8871 36.7901 24.075 36.3172 24.075C35.8444 24.075 35.3909 23.8871 35.0566 23.5528C34.7223 23.2184 34.5344 22.765 34.5344 22.2921C34.5344 21.8193 34.7223 21.3658 35.0566 21.0315L39.2754 16.8128C39.6097 16.4784 40.0632 16.2906 40.536 16.2906C41.0088 16.2906 41.4623 16.4784 41.7966 16.8128C42.131 17.1471 42.3188 17.6006 42.3188 18.0734C42.3188 18.5462 42.131 18.9997 41.7966 19.334Z" fill="#404040"/>
<path d="M41.9421 35.6514C41.0101 35.6503 40.1165 35.2796 39.4574 34.6205C38.7983 33.9614 38.4276 33.0678 38.4265 32.1357C38.4265 31.9493 38.3524 31.7704 38.2206 31.6386C38.0887 31.5067 37.9099 31.4326 37.7234 31.4326C37.5369 31.4326 37.3581 31.5067 37.2262 31.6386C37.0943 31.7704 37.0203 31.9493 37.0203 32.1357C37.0192 33.0678 36.6485 33.9614 35.9894 34.6205C35.3303 35.2796 34.4367 35.6503 33.5046 35.6514C33.3182 35.6514 33.1393 35.7254 33.0075 35.8573C32.8756 35.9892 32.8015 36.168 32.8015 36.3545C32.8015 36.541 32.8756 36.7198 33.0075 36.8517C33.1393 36.9835 33.3182 37.0576 33.5046 37.0576C34.4367 37.0587 35.3303 37.4294 35.9894 38.0885C36.6485 38.7476 37.0192 39.6412 37.0203 40.5732C37.0203 40.7597 37.0943 40.9386 37.2262 41.0704C37.3581 41.2023 37.5369 41.2764 37.7234 41.2764C37.9099 41.2764 38.0887 41.2023 38.2206 41.0704C38.3524 40.9386 38.4265 40.7597 38.4265 40.5732C38.4276 39.6412 38.7983 38.7476 39.4574 38.0885C40.1165 37.4294 41.0101 37.0587 41.9421 37.0576C42.1286 37.0576 42.3075 36.9835 42.4393 36.8517C42.5712 36.7198 42.6453 36.541 42.6453 36.3545C42.6453 36.168 42.5712 35.9892 42.4393 35.8573C42.3075 35.7254 42.1286 35.6514 41.9421 35.6514ZM37.7234 38.0402C37.3068 37.3497 36.7282 36.7711 36.0376 36.3545C36.7282 35.9379 37.3068 35.3593 37.7234 34.6687C38.1399 35.3593 38.7186 35.9379 39.4091 36.3545C38.7186 36.7711 38.1399 37.3497 37.7234 38.0402Z" fill="#404040"/>
<path d="M43.3484 5.41699C42.6027 5.41615 41.8878 5.11957 41.3606 4.59231C40.8333 4.06504 40.5367 3.35016 40.5359 2.60449C40.5359 2.41801 40.4618 2.23917 40.3299 2.10731C40.1981 1.97545 40.0192 1.90137 39.8328 1.90137C39.6463 1.90137 39.4674 1.97545 39.3356 2.10731C39.2037 2.23917 39.1296 2.41801 39.1296 2.60449C39.1288 3.35016 38.8322 4.06504 38.305 4.59231C37.7777 5.11957 37.0628 5.41615 36.3171 5.41699C36.1307 5.41699 35.9518 5.49107 35.82 5.62293C35.6881 5.75479 35.614 5.93364 35.614 6.12012C35.614 6.3066 35.6881 6.48544 35.82 6.6173C35.9518 6.74916 36.1307 6.82324 36.3171 6.82324C37.0628 6.82408 37.7777 7.12067 38.305 7.64793C38.8322 8.17519 39.1288 8.89008 39.1296 9.63574C39.1296 9.82222 39.2037 10.0011 39.3356 10.1329C39.4674 10.2648 39.6463 10.3389 39.8328 10.3389C40.0192 10.3389 40.1981 10.2648 40.3299 10.1329C40.4618 10.0011 40.5359 9.82222 40.5359 9.63574C40.5367 8.89008 40.8333 8.17519 41.3606 7.64793C41.8878 7.12067 42.6027 6.82408 43.3484 6.82324C43.5349 6.82324 43.7137 6.74916 43.8456 6.6173C43.9774 6.48544 44.0515 6.3066 44.0515 6.12012C44.0515 5.93364 43.9774 5.75479 43.8456 5.62293C43.7137 5.49107 43.5349 5.41699 43.3484 5.41699ZM39.8328 7.306C39.5201 6.83592 39.117 6.43279 38.6469 6.12012C39.117 5.80745 39.5201 5.40432 39.8328 4.93424C40.1454 5.40432 40.5486 5.80745 41.0186 6.12012C40.5486 6.43279 40.1454 6.83592 39.8328 7.306Z" fill="#404040"/>
<path d="M6.08276 19.4795C6.08276 19.666 6.15684 19.8448 6.2887 19.9767C6.42057 20.1085 6.59941 20.1826 6.78589 20.1826C6.97237 20.1826 7.15121 20.1085 7.28307 19.9767C7.41493 19.8448 7.48901 19.666 7.48901 19.4795C7.49007 18.5474 7.8608 17.6538 8.51988 16.9947C9.17896 16.3357 10.0726 15.9649 11.0046 15.9639C11.1911 15.9639 11.37 15.8898 11.5018 15.7579C11.6337 15.6261 11.7078 15.4472 11.7078 15.2607C11.7078 15.0743 11.6337 14.8954 11.5018 14.7636C11.37 14.6317 11.1911 14.5576 11.0046 14.5576C10.0726 14.5566 9.17896 14.1858 8.51988 13.5268C7.8608 12.8677 7.49007 11.9741 7.48901 11.042C7.48901 10.8555 7.41493 10.6767 7.28307 10.5448C7.15121 10.4129 6.97237 10.3389 6.78589 10.3389C6.59941 10.3389 6.42057 10.4129 6.2887 10.5448C6.15684 10.6767 6.08276 10.8555 6.08276 11.042C6.08171 11.9741 5.71098 12.8677 5.0519 13.5268C4.39282 14.1858 3.49922 14.5566 2.56714 14.5576C2.38066 14.5576 2.20182 14.6317 2.06995 14.7636C1.93809 14.8954 1.86401 15.0743 1.86401 15.2607C1.86401 15.4472 1.93809 15.6261 2.06995 15.7579C2.20182 15.8898 2.38066 15.9639 2.56714 15.9639C3.49922 15.9649 4.39282 16.3357 5.0519 16.9947C5.71098 17.6538 6.08171 18.5474 6.08276 19.4795ZM6.78589 13.575C7.20245 14.2656 7.78107 14.8442 8.47165 15.2607C7.78107 15.6773 7.20245 16.2559 6.78589 16.9465C6.36933 16.2559 5.79071 15.6773 5.10013 15.2607C5.79071 14.8442 6.36933 14.2656 6.78589 13.575Z" fill="#404040"/>
</svg>
