<svg width="19" height="19" viewBox="0 0 19 19" fill="none" xmlns="http://www.w3.org/2000/svg">
<g clip-path="url(#clip0_196_157)">
<path d="M13.8444 2.54258C12.3429 2.53456 10.9154 3.19401 9.94822 4.34256C8.98707 3.18616 7.55565 2.52483 6.05201 2.54258C3.23327 2.54258 0.948242 4.82761 0.948242 7.64635C0.948242 12.4768 9.37861 17.1932 9.72039 17.3755C9.85829 17.4676 10.0381 17.4676 10.1761 17.3755C10.5179 17.1932 18.9482 12.5451 18.9482 7.64635C18.9482 4.82761 16.6632 2.54258 13.8444 2.54258ZM9.94822 16.4641C8.6267 15.6894 1.85964 11.5654 1.85964 7.64635C1.85964 5.33097 3.73663 3.45393 6.05205 3.45393C7.46995 3.43531 8.79688 4.1505 9.56091 5.34506C9.71603 5.55898 10.0153 5.60664 10.2292 5.45147C10.27 5.42182 10.306 5.38592 10.3356 5.34506C11.6027 3.40718 14.2009 2.86343 16.1388 4.13057C17.3251 4.90629 18.0392 6.22889 18.0368 7.64631C18.0368 11.6109 11.2697 15.7122 9.94822 16.4641Z" fill="#999999"/>
</g>
<defs>
<clipPath id="clip0_196_157">
<rect width="18" height="18" fill="white" transform="translate(0.948242 0.993408)"/>
</clipPath>
</defs>
</svg>
