<svg width="22" height="17" viewBox="0 0 22 17" fill="none" xmlns="http://www.w3.org/2000/svg">
<path d="M20.2157 16.3496H6.1731C5.59433 16.3496 5.12524 15.8805 5.12524 15.3018C5.12524 14.723 5.59433 14.2539 6.1731 14.2539H20.2154C20.7941 14.2539 21.2632 14.723 21.2632 15.3018C21.2632 15.8805 20.7945 16.3496 20.2157 16.3496Z" fill="#404040"/>
<path d="M20.2157 9.77149H6.1731C5.59433 9.77149 5.12524 9.3024 5.12524 8.72363C5.12524 8.14487 5.59433 7.67578 6.1731 7.67578H20.2154C20.7941 7.67578 21.2632 8.14487 21.2632 8.72363C21.2636 9.3024 20.7945 9.77149 20.2157 9.77149Z" fill="#404040"/>
<path d="M20.2157 3.19434H6.1731C5.59433 3.19434 5.12524 2.72525 5.12524 2.14648C5.12524 1.56772 5.59433 1.09863 6.1731 1.09863H20.2154C20.7941 1.09863 21.2632 1.56772 21.2632 2.14648C21.2632 2.72525 20.7945 3.19434 20.2157 3.19434Z" fill="#404040"/>
<path d="M1.67045 3.63484C2.44766 3.63484 3.07771 3.00479 3.07771 2.22758C3.07771 1.45037 2.44766 0.820312 1.67045 0.820312C0.893238 0.820312 0.263184 1.45037 0.263184 2.22758C0.263184 3.00479 0.893238 3.63484 1.67045 3.63484Z" fill="#404040"/>
<path d="M1.67045 10.1309C2.44766 10.1309 3.07771 9.50088 3.07771 8.72367C3.07771 7.94646 2.44766 7.31641 1.67045 7.31641C0.893238 7.31641 0.263184 7.94646 0.263184 8.72367C0.263184 9.50088 0.893238 10.1309 1.67045 10.1309Z" fill="#404040"/>
<path d="M1.67045 16.627C2.44766 16.627 3.07771 15.997 3.07771 15.2198C3.07771 14.4426 2.44766 13.8125 1.67045 13.8125C0.893238 13.8125 0.263184 14.4426 0.263184 15.2198C0.263184 15.997 0.893238 16.627 1.67045 16.627Z" fill="#404040"/>
</svg>
