<svg width="28" height="28" viewBox="0 0 28 28" fill="none" xmlns="http://www.w3.org/2000/svg">
<path d="M8.40566 18.4359H23.8337C25.5831 18.4359 27.0102 17.0087 27.0102 15.2593V8.76818C27.0102 8.76243 27.0102 8.75092 27.0102 8.74516C27.0102 8.7279 27.0102 8.71639 27.0102 8.69913C27.0102 8.68762 27.0102 8.67611 27.0045 8.6646C27.0045 8.65309 26.9987 8.63582 26.9987 8.62432C26.9987 8.61281 26.993 8.6013 26.993 8.58979C26.9872 8.57828 26.9872 8.56677 26.9814 8.54951C26.9757 8.538 26.9757 8.52649 26.9699 8.51498C26.9642 8.50347 26.9642 8.49196 26.9584 8.48045C26.9527 8.46894 26.9469 8.45743 26.9412 8.44017C26.9354 8.42866 26.9297 8.41715 26.9239 8.4114C26.9181 8.39989 26.9124 8.38838 26.9066 8.37687C26.9009 8.36536 26.8951 8.3596 26.8894 8.3481C26.8836 8.33659 26.8721 8.32508 26.8664 8.31357C26.8606 8.30206 26.8548 8.2963 26.8433 8.28479C26.8376 8.27329 26.8261 8.26753 26.8203 8.25602C26.8146 8.24451 26.8031 8.23876 26.7973 8.22725C26.7915 8.21574 26.78 8.20999 26.7743 8.20423C26.7628 8.19272 26.757 8.18697 26.7455 8.17546C26.734 8.1697 26.7282 8.15819 26.7167 8.15244C26.7052 8.14669 26.6937 8.13518 26.6822 8.12942C26.6707 8.12367 26.6649 8.11791 26.6534 8.11216C26.6419 8.1064 26.6304 8.10065 26.6189 8.08914C26.6074 8.08338 26.5959 8.07763 26.5844 8.07188C26.5729 8.06612 26.5614 8.06037 26.5499 8.05461C26.5383 8.04886 26.5268 8.0431 26.5153 8.03735C26.5038 8.03159 26.4923 8.03159 26.4808 8.02584C26.4693 8.02008 26.452 8.01433 26.4405 8.01433C26.429 8.01433 26.4175 8.00858 26.4117 8.00858C26.3945 8.00282 26.383 8.00282 26.3657 8.00282C26.36 8.00282 26.3542 7.99707 26.3427 7.99707L6.78863 5.29817V2.5705C6.78863 2.54173 6.78863 2.51295 6.78287 2.48993C6.78287 2.48418 6.78287 2.47842 6.77712 2.46692C6.77712 2.44965 6.77136 2.43239 6.77136 2.41512C6.76561 2.39786 6.76561 2.38635 6.75985 2.36909C6.75985 2.35758 6.7541 2.35182 6.7541 2.34031C6.74834 2.32305 6.74259 2.30579 6.73683 2.28852C6.73683 2.28277 6.73108 2.27126 6.73108 2.26551C6.72533 2.24824 6.71957 2.23673 6.70806 2.21947C6.70231 2.21371 6.70231 2.20221 6.69655 2.19645C6.6908 2.18494 6.68504 2.17343 6.67353 2.16192C6.66778 2.15041 6.66202 2.14466 6.65627 2.13315C6.65052 2.12164 6.64476 2.11589 6.63901 2.10438C6.63325 2.09287 6.62174 2.08136 6.61599 2.06985C6.61023 2.0641 6.60448 2.05834 6.59872 2.05259C6.58721 2.04108 6.57571 2.02957 6.5642 2.01806C6.55844 2.0123 6.55269 2.00655 6.54693 2.00079C6.53542 1.98929 6.52391 1.97778 6.50665 1.96627C6.5009 1.96051 6.48939 1.95476 6.48363 1.949C6.47212 1.93749 6.46061 1.93174 6.44911 1.92023C6.43184 1.90872 6.41458 1.89721 6.40307 1.89146C6.39731 1.8857 6.39156 1.8857 6.38581 1.87995C6.36279 1.86844 6.33401 1.85693 6.311 1.84542L2.06987 0.0615021C1.6728 -0.105381 1.21819 0.0787658 1.05131 0.475832C0.884426 0.872898 1.06857 1.32751 1.46564 1.49439L5.22913 3.08266V6.60446V7.16265V11.4441V15.2709V20.1047C5.22913 21.716 6.4376 23.051 7.99709 23.2525C7.71511 23.7243 7.54823 24.2768 7.54823 24.8637C7.54823 26.5959 8.9581 28 10.6845 28C12.4109 28 13.8207 26.5901 13.8207 24.8637C13.8207 24.2883 13.6653 23.7416 13.3891 23.2812H20.3752C20.099 23.7473 19.9436 24.2883 19.9436 24.8637C19.9436 26.5959 21.3535 28 23.0798 28C24.8062 28 26.2161 26.5901 26.2161 24.8637C26.2161 23.1374 24.8062 21.7275 23.0798 21.7275H8.40566C7.50795 21.7275 6.78287 20.9967 6.78287 20.1047V17.9985C7.25475 18.2747 7.81294 18.4359 8.40566 18.4359ZM12.2727 24.858C12.2727 25.7327 11.5592 26.4405 10.6902 26.4405C9.82129 26.4405 9.10772 25.7269 9.10772 24.858C9.10772 23.989 9.82129 23.2755 10.6902 23.2755C11.5592 23.2755 12.2727 23.9833 12.2727 24.858ZM24.6681 24.858C24.6681 25.7327 23.9545 26.4405 23.0856 26.4405C22.2167 26.4405 21.5031 25.7269 21.5031 24.858C21.5031 23.989 22.2167 23.2755 23.0856 23.2755C23.9545 23.2755 24.6681 23.9833 24.6681 24.858ZM23.8337 16.8821H8.40566C7.50795 16.8821 6.78287 16.1513 6.78287 15.2593V11.4325V7.15114V6.86341L25.4565 9.43571V15.2536C25.4565 16.1571 24.7257 16.8821 23.8337 16.8821Z" fill="#1A467C"/>
</svg>
