<svg width="28" height="28" viewBox="0 0 28 28" fill="none" xmlns="http://www.w3.org/2000/svg">
<path d="M14 28C10.6851 28 7.46998 26.8207 4.94687 24.6793C4.35444 24.1769 3.7987 23.6197 3.29525 23.0237C1.17015 20.5047 0 17.3002 0 14C0 10.2604 1.45622 6.74472 4.10047 4.10047C6.74472 1.45622 10.2604 0 14 0C17.7396 0 21.2553 1.45622 23.8995 4.10047C26.5438 6.74472 28 10.2604 28 14C28 17.3003 26.8299 20.5048 24.705 23.0233C24.2013 23.6197 23.6456 24.1769 23.053 24.6795C20.53 26.8207 17.3149 28 14 28ZM14 1.75C7.24533 1.75 1.75 7.24533 1.75 14C1.75 16.8878 2.7737 19.6915 4.63252 21.8949C5.0733 22.4167 5.56008 22.9047 6.07906 23.3449C8.28647 25.2183 11.0994 26.25 14 26.25C16.9006 26.25 19.7135 25.2183 21.9208 23.3451C22.4399 22.9047 22.9267 22.4167 23.3678 21.8945C25.2263 19.6916 26.25 16.8878 26.25 14C26.25 7.24533 20.7547 1.75 14 1.75Z" fill="#1A467C"/>
<path d="M14 14C11.1051 14 8.75 11.6449 8.75 8.75C8.75 5.85512 11.1051 3.5 14 3.5C16.8949 3.5 19.25 5.85512 19.25 8.75C19.25 11.6449 16.8949 14 14 14ZM14 5.25C12.0701 5.25 10.5 6.82008 10.5 8.75C10.5 10.6799 12.0701 12.25 14 12.25C15.9299 12.25 17.5 10.6799 17.5 8.75C17.5 6.82008 15.9299 5.25 14 5.25Z" fill="#1A467C"/>
<path d="M22.4876 24.8874C22.4171 24.8874 22.3454 24.8788 22.2739 24.8609C21.8052 24.7433 21.5206 24.2679 21.6383 23.7992C21.7953 23.1734 21.875 22.526 21.875 21.875C21.875 17.5938 18.3944 14.062 14.1152 14.0005L14 14L13.8848 14.0005C9.60564 14.062 6.125 17.5938 6.125 21.875C6.125 22.526 6.20468 23.1734 6.36174 23.7992C6.47938 24.2679 6.19478 24.7433 5.72611 24.8609C5.25744 24.9785 4.78204 24.694 4.66441 24.2253C4.47234 23.4602 4.375 22.6695 4.375 21.875C4.375 19.3278 5.3603 16.9267 7.14941 15.114C8.93676 13.3031 11.3212 12.2862 13.8636 12.2507C13.8677 12.2506 13.8718 12.2506 13.8759 12.2506L14 12.25L14.1241 12.2505C14.1282 12.2505 14.1323 12.2505 14.1364 12.2506C16.6788 12.2861 19.0632 13.303 20.8506 15.1139C22.6397 16.9267 23.625 19.3278 23.625 21.875C23.625 22.6695 23.5277 23.4602 23.3356 24.2253C23.2359 24.6224 22.8793 24.8874 22.4876 24.8874Z" fill="#1A467C"/>
</svg>
