<svg width="20" height="21" viewBox="0 0 20 21" fill="none" xmlns="http://www.w3.org/2000/svg">
<g clip-path="url(#clip0_19_3)">
<path d="M8.80758 0.516846C3.95121 0.516846 0 4.46806 0 9.32442C0 14.1811 3.95121 18.132 8.80758 18.132C13.6642 18.132 17.6152 14.1811 17.6152 9.32442C17.6152 4.46806 13.6642 0.516846 8.80758 0.516846ZM8.80758 16.506C4.8477 16.506 1.62602 13.2843 1.62602 9.32446C1.62602 5.36458 4.8477 2.14286 8.80758 2.14286C12.7675 2.14286 15.9891 5.36454 15.9891 9.32442C15.9891 13.2843 12.7675 16.506 8.80758 16.506Z" fill="#C4C4C4"/>
<path d="M19.7617 19.129L15.1005 14.4677C14.7829 14.1501 14.2685 14.1501 13.9509 14.4677C13.6332 14.785 13.6332 15.3 13.9509 15.6173L18.6121 20.2786C18.7709 20.4374 18.9788 20.5168 19.1869 20.5168C19.3948 20.5168 19.6029 20.4374 19.7617 20.2786C20.0794 19.9612 20.0794 19.4463 19.7617 19.129Z" fill="#C4C4C4"/>
</g>
<defs>
<clipPath id="clip0_19_3">
<rect width="20" height="20" fill="white" transform="translate(0 0.516846)"/>
</clipPath>
</defs>
</svg>
