<svg width="15" height="15" viewBox="0 0 15 15" fill="none" xmlns="http://www.w3.org/2000/svg">
<path d="M14.2399 5.33477C14.0799 5.15519 13.8612 5.03839 13.623 5.00523V5.00473L9.90225 4.49075L8.42986 0.972493C8.21487 0.457518 7.62311 0.214341 7.10816 0.429336C6.86267 0.531839 6.66748 0.727002 6.56501 0.972493L5.09262 4.49075L1.37187 5.00473C0.817525 5.08189 0.430686 5.59388 0.507849 6.14823C0.54101 6.38645 0.657809 6.60511 0.837387 6.76512L3.6407 9.26494L3.06471 13.1876C3.00231 13.586 3.18526 13.9828 3.52868 14.1941C3.86727 14.4106 4.3028 14.4025 4.6331 14.1736L7.49741 12.2257L10.3617 14.1756C10.8239 14.4892 11.4529 14.3689 11.7666 13.9067C11.9092 13.6966 11.9675 13.4407 11.9301 13.1896L11.3542 9.26541L14.1575 6.76559C14.5753 6.39325 14.6123 5.75263 14.2399 5.33477ZM10.4872 8.70046C10.3618 8.81251 10.3011 8.98008 10.3257 9.14644L10.9257 13.3462L7.7799 11.2073C7.61031 11.0921 7.38752 11.0921 7.21793 11.2073L4.05364 13.3332L4.6691 9.14445C4.69301 8.97876 4.63236 8.8121 4.5076 8.70049L1.5078 5.99666L5.51153 5.44418C5.68683 5.42001 5.83627 5.30497 5.9045 5.14171L7.50338 1.35098C7.5052 1.35321 7.50655 1.35576 7.5074 1.35848L9.08979 5.13972C9.15802 5.30298 9.30748 5.41802 9.48275 5.44219L13.4915 6.01915L10.4872 8.70046Z" fill="#FFA800"/>
</svg>
