<svg width="26" height="26" viewBox="0 0 26 26" fill="none" xmlns="http://www.w3.org/2000/svg">
<g clip-path="url(#clip0_34_30)">
<path d="M18.7549 1.59424C16.0916 1.59424 14.1154 3.22983 12.8955 5.55005C11.6757 3.22998 9.69951 1.59424 7.03613 1.59424C3.1978 1.59424 0.395508 4.81763 0.395508 8.74829C0.395508 13.9464 5.35508 17.2098 12.4132 23.3856C12.6894 23.6273 13.1016 23.6272 13.3778 23.3856C20.4294 17.2154 25.3955 13.947 25.3955 8.74829C25.3955 4.81699 22.5928 1.59424 18.7549 1.59424ZM12.8955 21.8628C6.39541 16.2166 1.86035 13.08 1.86035 8.74829C1.86035 5.50493 4.08545 3.05908 7.03613 3.05908C9.88047 3.05908 11.6431 5.69321 12.1896 7.64873C12.3866 8.36211 13.402 8.36528 13.6015 7.64873C14.1407 5.71914 15.8829 3.05908 18.7549 3.05908C21.7056 3.05908 23.9307 5.50493 23.9307 8.74829C23.9307 13.0825 19.3882 16.223 12.8955 21.8628Z" fill="#404040"/>
</g>
<defs>
<clipPath id="clip0_34_30">
<rect width="25" height="25" fill="white" transform="translate(0.395508 0.0805664)"/>
</clipPath>
</defs>
</svg>
